<?xml version="1.0" encoding="UTF-8"?>
<svg id="Layer_1" xmlns="http://www.w3.org/2000/svg" version="1.1" viewBox="0 0 283.5 249.9">
  <!-- Generator: Adobe Illustrator 29.1.0, SVG Export Plug-In . SVG Version: 2.1.0 Build 142)  -->
  <defs>
    <style>
      .st0 {
        fill: #fff;
      }
    </style>
  </defs>
  <rect x="0" y="0" width="283.5" height="249.9"/>
  <g>
    <path class="st0" d="M99.9,132.4c0,8,7.1,12.3,13.4,12.3h51.9c7,0,12.3-2.7,12.3-12.3v-6.4h0c0-3-1.1-4.2-5.1-4.2h-42.9c-.4,0-.5.5-.2.7l4.7,3.1,4.1,2.8c.5.4,1.2.6,1.8.6h17c.5.1,1,.3,1,1v3.6c0,3.2-2,4.2-5,4.2h-28.4c-2.4,0-4.9-1.8-5.1-4.9v-16.2c.2-3.2,2.3-4.9,4.7-4.9h28.5c3.3,0,4.9,1.3,4.9,3.8v.3c0,.3.2.5.5.5h19.7v-1.9c0-5.4-6.2-9.4-12.4-9.4h-52c-6.4,0-13.3,3.9-13.3,12.3v15Z"/>
    <path class="st0" d="M101,144.8h-22.3c-.7,0-1.4-.2-2-.6l-22-13.3c-1.3-.8-2.8-1.2-4.3-1.2h-9.3v15h-19.6s0-39.6,0-39.6h19.6v15.1h9.2c1.5,0,3-.4,4.3-1.2l22.1-13.3c.6-.4,1.3-.5,2-.5h22.3l-28.4,18.5-7.4-2.3,35.8,23.3Z"/>
    <polygon class="st0" points="209.2 105.1 185.2 105.1 185.2 144.7 204.7 144.7 204.7 115.8 217.7 130.6 230.6 130.6 242.4 115.8 242.4 144.7 261.9 144.7 261.9 105.1 237.9 105.1 225.5 118.5 230.3 125.8 209.2 105.1"/>
  </g>
</svg>